<svg preserveAspectRatio="none" width="100%" height="100%" overflow="visible" style="display: block;" viewBox="0 0 43 43" fill="none" xmlns="http://www.w3.org/2000/svg">
<g id="go" clip-path="url(#clip0_0_445)">
<circle id="Ellipse 1" cx="21.5" cy="21.5" r="21.5" fill="var(--fill-0, #D9D9D9)" fill-opacity="0.3"/>
<path id="Arrow 1" d="M10 19C9.44772 19 9 19.4477 9 20C9 20.5523 9.44772 21 10 21V20V19ZM30.7071 20.7071C31.0976 20.3166 31.0976 19.6834 30.7071 19.2929L24.3431 12.9289C23.9526 12.5384 23.3195 12.5384 22.9289 12.9289C22.5384 13.3195 22.5384 13.9526 22.9289 14.3431L28.5858 20L22.9289 25.6569C22.5384 26.0474 22.5384 26.6805 22.9289 27.0711C23.3195 27.4616 23.9526 27.4616 24.3431 27.0711L30.7071 20.7071ZM10 20V21H30V20V19H10V20Z" fill="var(--stroke-0, white)"/>
</g>
<defs>
<clipPath id="clip0_0_445">
<rect width="43" height="43" fill="white"/>
</clipPath>
</defs>
</svg>
