<?xml version="1.0" encoding="UTF-8"?><svg id="logo_x5F_white_x5F_ws" xmlns="http://www.w3.org/2000/svg" viewBox="0 0 170.0787 170.0787"><path d="M45.8569,73.2378c-1.8034,2.0013-4.2817,3.3734-7.0814,3.7603,1.2184.695,1.9719,2.0119,1.9719,3.392v3.5464c0,1.1718-.5073,2.1896-1.2874,2.8944-.7021.6342-1.6271,1.0157-2.6183,1.0173v.0084l-11.2134-.0411c-2.3204,0-3.9302-1.8847-3.9302-3.9025v-3.5464c0-2.2286,1.8168-3.912,3.912-3.912l10.985-.6099c7.077,0,11.7148-5.9139,11.7148-11.7147,0-6.8394-5.6601-11.7149-11.7148-11.7149h-10.9326c-4.8719,0-10.3426,3.5084-11.3315,9.4126-.103.615-.1576,1.2558-.1576,1.9216v10.7431l.0051-.0042c1.4245-3.094,4.1943-5.4404,7.562-6.2846l.0005-.0004v-4.4538c0-.7029.2113-1.3584.5665-1.9216.696-1.1034,1.955-1.845,3.3324-1.845h10.974c2.6127,0,4.1563,2.0968,4.1563,4.1751,0,2.0601-1.7425,4.105-4.1563,4.105l-10.9736.6388c-3.2471,0-6.3254,1.2455-8.8115,4.0669-1.7464,1.9819-2.6555,4.7433-2.6555,7.3056,0,1.3053.012,2.4258.012,3.7995,0,5.3756,4.2436,11.3095,11.4892,11.3095h11.177s0,0,0,0c.0005,0,.001,0,.0015,0h.3698v-.0089c3.1099-.092,6.0492-1.3445,8.4402-4.0579,1.1128-1.2628,1.8819-2.8427,2.2962-4.4853.2359-.9353.3593-1.8907.3593-2.8203,0-1.3053-.012-2.4258-.012-3.7995,0-2.4083-.8577-4.9245-2.4494-6.9732Z" fill="#fff"/><path d="M119.6105,56.7116c0,3.3553-3.0275,4.2966-4.0452,4.2966h-10.1997v29.7899c0,1.2271-.0878,4.5848-3.5618,4.5848-3.5076,0-3.561-3.3577-3.561-4.5848v-29.7899h-10.1414c-1.0178,0-4.1035-.7725-4.1035-4.2966,0-3.6795,3.0857-4.2966,4.1035-4.2966h27.4639c1.0178,0,4.0452.8423,4.0452,4.2966Z" fill="#fff"/><path d="M81.4027,86.7998v-.0101h-19.122c-.3733,0-.7715-.0617-1.1952-.1852-.4245-.1217-.814-.3472-1.1705-.6753-.3558-.3262-.6445-.7669-.8651-1.3188-.2207-.5536-.3302-1.2588-.3302-2.1174v-4.2966h9.6393c.0253,0,6.4256-.0055,6.4539-.0063v.0003c1.1131-.0292,4.5082-.6571,4.5082-4.2921,0-3.7188-3.395-4.266-4.5082-4.2911v-.0003c-.0284-.0007-6.4286-.0056-6.4539-.0056h-9.6393v-4.2966c0-.4497.0504-.9309.1527-1.4423.1015-.5112.2878-.982.5597-1.4122.271-.4284.6357-.7757,1.0938-1.0437.4573-.2645,1.0425-.3985,1.7549-.3985h22.4903c-1.0177,0-2.5725-2.0268-2.5725-4.3059,0-2.5821,1.5548-4.2873,2.5725-4.2873h-22.4903c-1.9675,0-3.6297.4302-4.9857,1.2888-1.3568.8586-2.4593,1.9341-3.3068,3.2229-.8483,1.2888-1.4583,2.6905-1.8317,4.2049-.3733,1.5145-.5597,2.9057-.5597,4.1733v17.1882c0,2.3731.3565,4.3795,1.0688,6.0157.7116,1.6361,1.6023,2.9672,2.6705,3.9898,1.0688,1.0225,2.221,1.7596,3.4595,2.2091,1.2377.4514,2.3993.6753,3.485.6753h19.122c1.1131-.0292,4.5082-.6571,4.5082-4.2921,0-3.7188-3.395-4.266-4.5082-4.2911Z" fill="#fff"/><path d="M155.3459,61.1316c-.3733-1.5144-.9834-2.9161-1.8317-4.2049-.8475-1.2888-1.95-2.3643-3.3068-3.2229-1.356-.8586-3.0182-1.2888-4.9857-1.2888h-14.2449c-1.0506,0-2.2043.2257-3.4595.6753-1.2545.4496-2.4161,1.1865-3.4851,2.2091-1.0682,1.0244-1.9588,2.3538-2.6703,3.9898-.7124,1.638-1.069,3.6426-1.069,6.0157v25.49c0,1.2271,0,4.5881,3.5618,4.5881s3.561-3.3609,3.561-4.5881v-12.5984h21.367v-.006c1.1131-.0251,4.5082-.5722,4.5082-4.2911,0-3.635-3.395-4.2629-4.5082-4.2921v-.006h-21.367v-4.2966c0-.8586.1103-1.5657.3303-2.1174.2213-.5519.5092-.9909.865-1.3206.3565-.3262.7467-.5518,1.1705-.6753.4245-.1217.8227-.1833,1.1953-.1833h14.2449c.7123,0,1.2975.134,1.7549.3985.4581.2679.8227.6153,1.0938,1.0437.2718.4302.458.9009.5597,1.4123.1023.5112.1527.9925.1527,1.4422v2.8389c1.4928.0391,6.0456.8811,6.0456,5.7559,0,4.987-4.5528,5.7208-6.0456,5.7544v11.4323c0,1.227,0,4.2966,3.561,4.2966,3.5632,0,3.5618-3.0695,3.5618-4.2966v-25.7815c0-1.2676-.1863-2.6588-.5597-4.1733Z" fill="#fff"/><text transform="translate(12.1803 115.4421)" fill="#fff" font-family="Baloo2-Regular, &apos;Baloo 2&apos;" font-size="11"><tspan x="0" y="0" letter-spacing="-.023em">B</tspan><tspan x="6.3359" y="0" letter-spacing="-.02em">e</tspan><tspan x="11.8252" y="0" letter-spacing="-.028em">t</tspan><tspan x="15.6089" y="0" letter-spacing="-.035em">t</tspan><tspan x="19.3159" y="0" letter-spacing="-.02em">er </tspan><tspan x="30.7666" y="0" letter-spacing="-.03em">L</tspan><tspan x="35.9473" y="0" letter-spacing="-.02em">ending </tspan><tspan x="68.9907" y="0" letter-spacing="-.0159em">S</tspan><tspan x="74.5688" y="0" letter-spacing="-.0201em">olutions P</tspan><tspan x="119.438" y="0" letter-spacing="-.0161em">t</tspan><tspan x="123.353" y="0" letter-spacing="-.02em">y L</tspan><tspan x="135.7837" y="0" letter-spacing="-.0351em">t</tspan><tspan x="139.4897" y="0" letter-spacing="-.02em">d</tspan></text></svg>